<svg xmlns="http://www.w3.org/2000/svg" width="32" height="32" viewBox="0 0 32 32" fill="none">
  <!-- Shield Background -->
  <path d="M16 2L4 8V17C4 23.6 9.4 29.6 16 31C22.6 29.6 28 23.6 28 17V8L16 2Z" fill="#3366FF" />
  
  <!-- Shield Inner Glow -->
  <path d="M16 4.5L6.5 9.5V17C6.5 22.25 10.675 27.2 16 28.5C21.325 27.2 25.5 22.25 25.5 17V9.5L16 4.5Z" fill="#0044CC" />
  
  <!-- AI Circuit Pattern -->
  <path d="M12 14H20M12 18H20M16 12V21M11 12H21M11 21H21" stroke="#FFFFFF" stroke-width="1" stroke-linecap="round" />
  
  <!-- Security Lock Symbol -->
  <circle cx="16" cy="16.5" r="3" fill="#FFFFFF" />
  <path d="M15.25 16.5C15.25 16.0875 15.5875 15.75 16 15.75C16.4125 15.75 16.75 16.0875 16.75 16.5C16.75 16.9125 16.4125 17.25 16 17.25" stroke="#0044CC" stroke-width="0.5" stroke-linecap="round" />
  <path d="M16 17.25V18.25" stroke="#0044CC" stroke-width="0.5" stroke-linecap="round" />
</svg>
